HIERARCHY
ROOT Hips
{
	OFFSET 0.000000 0.000000 0.000000
	CHANNELS 6 Xposition Yposition Zposition Xrotation Yrotation Zrotation
	JOINT LeftUpLeg_virtual
	{
		OFFSET 0.000000 0.000000 0.000000
		CHANNELS 3 Xrotation Yrotation Zrotation
		JOINT LeftUpLeg
		{
			OFFSET 11.394100 -6.187798 -0.413800
			CHANNELS 3 Xrotation Yrotation Zrotation
			JOINT LeftLeg
			{
				OFFSET 0.430247 -32.302673 3.732800
				CHANNELS 3 Xrotation Yrotation Zrotation
				JOINT LeftFoot
				{
					OFFSET -0.430247 -48.264931 -6.423300
					CHANNELS 3 Xrotation Yrotation Zrotation
					JOINT LeftToeBase
					{
						OFFSET 4.230900 -16.068199 23.438400
						CHANNELS 3 Xrotation Yrotation Zrotation
						JOINT LeftToe_End
						{
							OFFSET 4.510700 0.695400 19.974600
							CHANNELS 3 Xrotation Yrotation Zrotation
							End Site
							{
								OFFSET 0 0 0
							}
						}
					}
				}
			}
		}
	}
	JOINT RightUpLeg_virtual
	{
		OFFSET 0.000000 0.000000 0.000000
		CHANNELS 3 Xrotation Yrotation Zrotation
		JOINT RightUpLeg
		{
			OFFSET -11.333700 -6.187798 -0.413800
			CHANNELS 3 Xrotation Yrotation Zrotation
			JOINT RightLeg
			{
				OFFSET -0.430392 -32.302628 3.733000
				CHANNELS 3 Xrotation Yrotation Zrotation
				JOINT RightFoot
				{
					OFFSET 0.430392 -48.264973 -6.423500
					CHANNELS 3 Xrotation Yrotation Zrotation
					JOINT RightToeBase
					{
						OFFSET -4.230900 -16.068199 23.438400
						CHANNELS 3 Xrotation Yrotation Zrotation
						JOINT RightToe_End
						{
							OFFSET -4.510700 0.695400 19.974600
							CHANNELS 3 Xrotation Yrotation Zrotation
							End Site
							{
								OFFSET 0 0 0
							}
						}
					}
				}
			}
		}
	}
	JOINT Spine_virtual
	{
		OFFSET 0.000000 0.000000 0.000000
		CHANNELS 3 Xrotation Yrotation Zrotation
		JOINT Spine
		{
			OFFSET -0.002400 12.777504 0.315300
			CHANNELS 3 Xrotation Yrotation Zrotation
			JOINT Spine1
			{
				OFFSET -0.002067 5.816869 0.032633
				CHANNELS 3 Xrotation Yrotation Zrotation
				JOINT Spine1_split
				{
					OFFSET -0.002067 5.816869 0.032633
					CHANNELS 3 Xrotation Yrotation Zrotation
					JOINT Spine2
					{
						OFFSET -0.002067 5.816869 0.032633
						CHANNELS 3 Xrotation Yrotation Zrotation
						JOINT Neck_virtual
						{
							OFFSET 0.000000 0.000000 0.000000
							CHANNELS 3 Xrotation Yrotation Zrotation
							JOINT Neck
							{
								OFFSET -0.003700 21.199493 -0.826900
								CHANNELS 3 Xrotation Yrotation Zrotation
								JOINT Head
								{
									OFFSET 0.000000 20.442200 4.834800
									CHANNELS 3 Xrotation Yrotation Zrotation
									JOINT HeadTop_End
									{
										OFFSET 0.000000 34.668396 4.968400
										CHANNELS 3 Xrotation Yrotation Zrotation
										End Site
										{
											OFFSET 0 0 0
										}
									}
								}
							}
						}
						JOINT LeftShoulder_virtual
						{
							OFFSET 0.000000 0.000000 0.000000
							CHANNELS 3 Xrotation Yrotation Zrotation
							JOINT LeftShoulder
							{
								OFFSET 3.288150 8.794197 -1.372250
								CHANNELS 3 Xrotation Yrotation Zrotation
								JOINT LeftShoulder_split
								{
									OFFSET 3.288150 8.794197 -1.372250
									CHANNELS 3 Xrotation Yrotation Zrotation
									JOINT LeftArm
									{
										OFFSET 11.953299 -2.279007 -0.146200
										CHANNELS 3 Xrotation Yrotation Zrotation
										JOINT LeftForeArm
										{
											OFFSET 18.448900 0.000000 0.000000
											CHANNELS 3 Xrotation Yrotation Zrotation
											JOINT LeftHand
											{
												OFFSET 29.527798 0.000000 0.000000
												CHANNELS 3 Xrotation Yrotation Zrotation
												End Site
												{
													OFFSET 0 0 0
												}
											}
										}
									}
								}
							}
						}
						JOINT RightShoulder_virtual
						{
							OFFSET 0.000000 0.000000 0.000000
							CHANNELS 3 Xrotation Yrotation Zrotation
							JOINT RightShoulder
							{
								OFFSET -3.249400 8.794197 -1.372250
								CHANNELS 3 Xrotation Yrotation Zrotation
								JOINT RightShoulder_split
								{
									OFFSET -3.249400 8.794197 -1.372250
									CHANNELS 3 Xrotation Yrotation Zrotation
									JOINT RightArm
									{
										OFFSET -11.953299 -2.279007 -0.146200
										CHANNELS 3 Xrotation Yrotation Zrotation
										JOINT RightForeArm
										{
											OFFSET -18.448900 0.000000 0.000000
											CHANNELS 3 Xrotation Yrotation Zrotation
											JOINT RightHand
											{
												OFFSET -29.527802 0.000000 0.000000
												CHANNELS 3 Xrotation Yrotation Zrotation
												End Site
												{
													OFFSET 0 0 0
												}
											}
										}
									}
								}
							}
						}
					}
				}
			}
		}
	}
}
MOTION
Frames: 5
Frame Time: 0.03333333
-0.851877 99.954872 1.453838 0.000000 0.000000 0.000000 -39.921684 -82.620331 -38.512513 -17.603855 15.280248 9.069839 25.680668 0.811139 2.834488 -0.947263 1.032509 -6.717250 -5.297078 -0.228641 -0.885576 0.000000 0.000000 0.000000 -28.310863 -81.806644 -27.906645 -15.583034 -23.751148 -6.011025 22.793671 7.710986 -9.967928 -0.573096 -0.787523 8.259673 1.012608 -0.740776 -0.371914 0.000000 0.000000 0.000000 -39.503693 -81.156622 -38.829701 3.303616 0.418905 1.704605 3.867857 0.236858 1.904295 0.642391 5.750834 -0.520145 0.000000 0.000000 0.000000 3.984368 -0.236453 1.525689 -6.398639 6.657066 -3.258032 5.392610 36.776191 -3.323642 0.000000 0.000000 0.000000 5.424737 0.300062 1.627109 0.715549 5.178567 0.344693 -1.077393 0.226569 -0.672433 8.887223 -80.192896 -54.268418 -2.058344 -23.852513 -0.301680 0.000000 0.000000 0.000000 6.501271 0.824646 1.155593 1.165658 3.374832 7.446866 2.912108 4.118731 -0.475873 13.637706 27.807273 59.476427 1.223056 30.976595 0.101974 0.000000 0.000000 0.000000 
-0.760705 99.951317 1.508213 0.000000 0.000000 0.000000 -40.958961 -82.594240 -39.492717 -17.254607 15.306246 9.048623 25.840527 0.610525 2.913568 -1.326195 1.140724 -6.231600 -4.643322 -0.159180 -1.200196 0.000000 0.000000 0.000000 -28.409769 -81.594164 -27.983097 -15.629138 -23.671762 -5.992958 22.740201 7.601336 -9.899532 -0.223682 -0.932916 8.144938 1.001772 -0.802282 -0.270364 0.000000 0.000000 0.000000 -39.965940 -81.033979 -39.293337 3.373759 0.301595 1.766642 3.855623 0.211075 1.911402 0.874647 4.415683 -0.246275 0.000000 0.000000 0.000000 3.941404 -0.198619 1.552801 -6.564196 6.580687 -3.290505 5.349659 36.562231 -3.446887 0.000000 0.000000 0.000000 5.425640 0.286070 1.678057 0.675175 4.964573 0.270926 -1.041868 0.332480 -0.414492 11.212085 -80.276900 -52.116867 -2.329379 -24.159212 -0.652324 0.000000 0.000000 0.000000 6.525681 0.859091 1.253706 1.284155 3.155095 7.318515 2.963604 4.132879 -0.639169 13.822097 27.854410 59.248169 1.261933 31.717261 -0.065749 0.000000 0.000000 0.000000 
-0.612949 99.894096 1.455681 0.000000 0.000000 0.000000 -41.912431 -82.452801 -40.430171 -17.035293 15.518340 9.025537 26.023147 0.239021 3.119758 -1.868011 1.089402 -6.051647 -3.592726 -0.048503 -1.532681 0.000000 0.000000 0.000000 -29.574306 -81.271116 -29.087269 -15.514109 -23.545057 -5.935650 22.972450 7.609040 -9.847230 0.032364 -0.918004 8.363282 0.770954 -0.924737 -0.379530 0.000000 0.000000 0.000000 -40.535342 -80.904861 -39.853413 3.579199 0.057592 1.933654 3.835285 0.113667 1.911352 0.833227 3.393550 -0.096890 0.000000 0.000000 0.000000 3.988364 -0.244213 1.632537 -6.854516 6.618932 -3.450623 5.212822 36.610336 -3.648436 0.000000 0.000000 0.000000 5.516942 0.194667 1.748610 0.673751 4.823691 0.204697 -0.940686 0.887750 -0.535544 15.873057 -80.285985 -47.861591 -2.427644 -24.794469 -0.974438 0.000000 0.000000 0.000000 6.498903 0.777565 1.374495 1.423622 2.901571 7.074405 3.040103 4.406831 -0.632809 13.973122 27.712415 59.304477 1.280144 33.196044 -0.216566 0.000000 0.000000 0.000000 
-0.422361 99.787735 1.300869 0.000000 0.000000 0.000000 -42.506521 -82.252854 -41.005143 -16.901914 15.968726 8.951030 26.131607 -0.268700 3.420713 -2.379261 0.819555 -6.272050 -3.283879 0.033625 -1.438660 0.000000 0.000000 0.000000 -31.118909 -80.978395 -30.530304 -15.345451 -23.289347 -5.899240 23.374572 7.764045 -9.821739 0.036893 -0.701296 8.804212 0.627239 -1.056283 -0.648436 0.000000 0.000000 0.000000 -41.161626 -80.828554 -40.411156 3.853999 -0.253720 2.108467 3.810466 0.022217 1.899218 0.769098 2.742891 -0.184918 0.000000 0.000000 0.000000 4.105986 -0.321506 1.728881 -7.151126 6.737513 -3.726038 4.962911 36.841347 -3.896521 0.000000 0.000000 0.000000 5.646364 0.093517 1.829275 0.696923 4.774870 0.158186 -0.852321 1.565348 -0.854792 21.642088 -80.229273 -42.570930 -2.299581 -25.324699 -1.192952 0.000000 0.000000 0.000000 6.432734 0.649010 1.482277 1.541182 2.721176 6.819578 3.188895 4.860121 -0.566692 13.943396 27.409047 59.623959 1.267103 34.819020 -0.331427 0.000000 0.000000 0.000000 
-0.206981 99.705986 1.108799 0.000000 0.000000 0.000000 -43.232324 -82.202857 -41.633247 -16.639890 16.601137 8.711973 26.058184 -0.728005 3.807694 -2.940061 0.458577 -6.559076 -4.044672 0.068099 -0.846789 0.000000 0.000000 0.000000 -32.374222 -80.885955 -31.630230 -15.064660 -22.874143 -5.849208 23.621842 8.016524 -9.850400 -0.367587 -0.403065 9.083278 0.820265 -1.149081 -0.981178 0.000000 0.000000 0.000000 -42.497396 -80.977903 -41.597006 4.115113 -0.553267 2.151273 3.793593 0.014897 1.880683 0.940876 2.510920 -0.329210 0.000000 0.000000 0.000000 4.265886 -0.347969 1.806621 -7.321307 6.930988 -4.017175 4.598592 37.249393 -4.198744 0.000000 0.000000 0.000000 5.756819 0.067108 1.897520 0.727580 4.787009 0.079866 -0.911311 1.929452 -1.253946 26.438472 -80.084952 -38.093205 -1.877868 -25.610732 -1.224914 0.000000 0.000000 0.000000 6.345786 0.557207 1.553510 1.619579 2.634991 6.720031 3.256430 5.345044 -0.556819 13.573402 26.938290 60.163503 1.223622 36.155039 -0.396349 0.000000 0.000000 0.000000 
